<mxfile host="app.diagrams.net" modified="2022-04-27T11:58:37.044Z" agent="5.0 (Macintosh; Intel Mac OS X 10_15_7) AppleWebKit/605.1.15 (KHTML, like Gecko) Version/14.1.2 Safari/605.1.15" etag="5BrRaUBTGkOmiUL8dYfo" version="17.4.6" type="github">
  <diagram id="VqeVfdAjm5QrABPjtbQZ" name="Page-1">
    <mxGraphModel dx="2049" dy="1013" grid="1" gridSize="10" guides="1" tooltips="1" connect="1" arrows="1" fold="1" page="1" pageScale="1" pageWidth="827" pageHeight="1169" math="0" shadow="0">
      <root>
        <mxCell id="0" />
        <mxCell id="1" parent="0" />
        <mxCell id="rr1evjd3cK3BUrG2ZG_5-104" value="" style="endArrow=none;html=1;rounded=0;labelBackgroundColor=default;fontFamily=Helvetica;fontSize=22;fontColor=#000000;strokeColor=#ff0054;strokeWidth=3;shape=connector;" edge="1" parent="1">
          <mxGeometry width="50" height="50" relative="1" as="geometry">
            <mxPoint x="40" y="680" as="sourcePoint" />
            <mxPoint x="1620" y="680" as="targetPoint" />
          </mxGeometry>
        </mxCell>
        <mxCell id="rr1evjd3cK3BUrG2ZG_5-54" style="edgeStyle=orthogonalEdgeStyle;rounded=0;orthogonalLoop=1;jettySize=auto;html=1;exitX=1;exitY=0.5;exitDx=0;exitDy=0;entryX=0;entryY=0.5;entryDx=0;entryDy=0;fontSize=26;strokeWidth=3;" edge="1" parent="1" source="rr1evjd3cK3BUrG2ZG_5-2" target="rr1evjd3cK3BUrG2ZG_5-11">
          <mxGeometry relative="1" as="geometry" />
        </mxCell>
        <mxCell id="rr1evjd3cK3BUrG2ZG_5-2" value="&lt;font style=&quot;font-size: 26px&quot;&gt;Entrar na Plataforma&lt;/font&gt;" style="rounded=1;whiteSpace=wrap;html=1;strokeWidth=2;" vertex="1" parent="1">
          <mxGeometry x="205" y="500" width="140" height="70" as="geometry" />
        </mxCell>
        <mxCell id="rr1evjd3cK3BUrG2ZG_5-59" value="&lt;font style=&quot;font-size: 22px;&quot;&gt;Se um Colega resolver a Dúvida&lt;/font&gt;" style="edgeStyle=orthogonalEdgeStyle;rounded=0;orthogonalLoop=1;jettySize=auto;html=1;entryX=0.5;entryY=1;entryDx=0;entryDy=0;fontSize=22;strokeWidth=3;" edge="1" parent="1" source="rr1evjd3cK3BUrG2ZG_5-9" target="rr1evjd3cK3BUrG2ZG_5-16">
          <mxGeometry x="0.2775" relative="1" as="geometry">
            <mxPoint as="offset" />
          </mxGeometry>
        </mxCell>
        <mxCell id="rr1evjd3cK3BUrG2ZG_5-63" style="edgeStyle=orthogonalEdgeStyle;rounded=0;orthogonalLoop=1;jettySize=auto;html=1;entryX=0;entryY=0.5;entryDx=0;entryDy=0;fontSize=26;strokeWidth=3;" edge="1" parent="1" source="rr1evjd3cK3BUrG2ZG_5-9" target="rr1evjd3cK3BUrG2ZG_5-62">
          <mxGeometry relative="1" as="geometry" />
        </mxCell>
        <mxCell id="rr1evjd3cK3BUrG2ZG_5-9" value="Esperar" style="ellipse;whiteSpace=wrap;html=1;aspect=fixed;fontSize=26;strokeWidth=2;" vertex="1" parent="1">
          <mxGeometry x="1123.75" y="483.75" width="102.5" height="102.5" as="geometry" />
        </mxCell>
        <mxCell id="rr1evjd3cK3BUrG2ZG_5-58" style="edgeStyle=orthogonalEdgeStyle;rounded=0;orthogonalLoop=1;jettySize=auto;html=1;entryX=0;entryY=0.5;entryDx=0;entryDy=0;fontSize=26;strokeWidth=3;" edge="1" parent="1" source="rr1evjd3cK3BUrG2ZG_5-10" target="rr1evjd3cK3BUrG2ZG_5-13">
          <mxGeometry relative="1" as="geometry" />
        </mxCell>
        <mxCell id="rr1evjd3cK3BUrG2ZG_5-10" value="Iniciar&lt;br&gt;Senha" style="rounded=0;whiteSpace=wrap;html=1;fontSize=26;strokeWidth=2;" vertex="1" parent="1">
          <mxGeometry x="555" y="505" width="110" height="60" as="geometry" />
        </mxCell>
        <mxCell id="rr1evjd3cK3BUrG2ZG_5-57" style="edgeStyle=orthogonalEdgeStyle;rounded=0;orthogonalLoop=1;jettySize=auto;html=1;entryX=0;entryY=0.5;entryDx=0;entryDy=0;fontSize=26;strokeWidth=3;" edge="1" parent="1" source="rr1evjd3cK3BUrG2ZG_5-11" target="rr1evjd3cK3BUrG2ZG_5-10">
          <mxGeometry relative="1" as="geometry" />
        </mxCell>
        <mxCell id="rr1evjd3cK3BUrG2ZG_5-11" value="Tirar Senha" style="rhombus;whiteSpace=wrap;html=1;fontSize=26;strokeWidth=2;" vertex="1" parent="1">
          <mxGeometry x="385" y="476.25" width="130" height="117.5" as="geometry" />
        </mxCell>
        <mxCell id="rr1evjd3cK3BUrG2ZG_5-24" style="edgeStyle=orthogonalEdgeStyle;rounded=0;orthogonalLoop=1;jettySize=auto;html=1;entryX=0;entryY=0.5;entryDx=0;entryDy=0;fontSize=26;strokeWidth=3;" edge="1" parent="1" source="rr1evjd3cK3BUrG2ZG_5-13" target="rr1evjd3cK3BUrG2ZG_5-14">
          <mxGeometry relative="1" as="geometry" />
        </mxCell>
        <mxCell id="rr1evjd3cK3BUrG2ZG_5-13" value="Selecionar o tipo de Dúvida" style="rounded=0;whiteSpace=wrap;html=1;fontSize=26;strokeWidth=2;" vertex="1" parent="1">
          <mxGeometry x="725" y="477.5" width="150" height="115" as="geometry" />
        </mxCell>
        <mxCell id="rr1evjd3cK3BUrG2ZG_5-25" style="edgeStyle=orthogonalEdgeStyle;rounded=0;orthogonalLoop=1;jettySize=auto;html=1;entryX=0;entryY=0.5;entryDx=0;entryDy=0;fontSize=26;strokeWidth=3;" edge="1" parent="1" source="rr1evjd3cK3BUrG2ZG_5-14" target="rr1evjd3cK3BUrG2ZG_5-9">
          <mxGeometry relative="1" as="geometry" />
        </mxCell>
        <mxCell id="rr1evjd3cK3BUrG2ZG_5-14" value="&lt;span style=&quot;color: rgb(0 , 0 , 0) ; font-family: &amp;#34;helvetica&amp;#34; ; font-size: 26px ; font-style: normal ; font-weight: normal ; letter-spacing: normal ; text-align: center ; text-indent: 0px ; text-transform: none ; word-spacing: 0px ; background-color: rgb(248 , 249 , 250) ; text-decoration: none ; display: inline ; float: none&quot;&gt;Finalizar a Senha&lt;/span&gt;" style="rounded=0;whiteSpace=wrap;html=1;fontSize=26;strokeWidth=2;" vertex="1" parent="1">
          <mxGeometry x="932.5" y="493.75" width="140" height="82.5" as="geometry" />
        </mxCell>
        <mxCell id="rr1evjd3cK3BUrG2ZG_5-73" style="edgeStyle=orthogonalEdgeStyle;rounded=0;orthogonalLoop=1;jettySize=auto;html=1;entryX=0.5;entryY=0;entryDx=0;entryDy=0;fontSize=26;strokeWidth=3;" edge="1" parent="1" source="rr1evjd3cK3BUrG2ZG_5-16" target="rr1evjd3cK3BUrG2ZG_5-2">
          <mxGeometry relative="1" as="geometry" />
        </mxCell>
        <mxCell id="rr1evjd3cK3BUrG2ZG_5-16" value="Cancelar &lt;br&gt;a Senha" style="rhombus;whiteSpace=wrap;html=1;fontSize=26;strokeWidth=2;" vertex="1" parent="1">
          <mxGeometry x="1085" y="270" width="180" height="120" as="geometry" />
        </mxCell>
        <mxCell id="rr1evjd3cK3BUrG2ZG_5-71" style="edgeStyle=orthogonalEdgeStyle;rounded=0;orthogonalLoop=1;jettySize=auto;html=1;entryX=0;entryY=0.5;entryDx=0;entryDy=0;fontSize=26;strokeWidth=3;" edge="1" parent="1" source="rr1evjd3cK3BUrG2ZG_5-28" target="rr1evjd3cK3BUrG2ZG_5-29">
          <mxGeometry relative="1" as="geometry" />
        </mxCell>
        <mxCell id="rr1evjd3cK3BUrG2ZG_5-28" value="Entrar na Plataforma" style="rounded=1;whiteSpace=wrap;html=1;fontSize=26;strokeWidth=2;" vertex="1" parent="1">
          <mxGeometry x="205" y="815" width="130" height="70" as="geometry" />
        </mxCell>
        <mxCell id="rr1evjd3cK3BUrG2ZG_5-70" style="edgeStyle=orthogonalEdgeStyle;rounded=0;orthogonalLoop=1;jettySize=auto;html=1;entryX=0;entryY=0.5;entryDx=0;entryDy=0;fontSize=26;strokeWidth=3;" edge="1" parent="1" source="rr1evjd3cK3BUrG2ZG_5-29" target="rr1evjd3cK3BUrG2ZG_5-36">
          <mxGeometry relative="1" as="geometry" />
        </mxCell>
        <mxCell id="rr1evjd3cK3BUrG2ZG_5-29" value="Aceder &lt;br&gt;às Senhas" style="rhombus;whiteSpace=wrap;html=1;fontSize=26;strokeWidth=2;" vertex="1" parent="1">
          <mxGeometry x="410" y="785" width="200" height="130" as="geometry" />
        </mxCell>
        <mxCell id="rr1evjd3cK3BUrG2ZG_5-68" style="edgeStyle=orthogonalEdgeStyle;rounded=0;orthogonalLoop=1;jettySize=auto;html=1;entryX=0;entryY=0.5;entryDx=0;entryDy=0;fontSize=26;strokeWidth=3;" edge="1" parent="1" source="rr1evjd3cK3BUrG2ZG_5-31" target="rr1evjd3cK3BUrG2ZG_5-35">
          <mxGeometry relative="1" as="geometry" />
        </mxCell>
        <mxCell id="rr1evjd3cK3BUrG2ZG_5-100" style="edgeStyle=orthogonalEdgeStyle;shape=connector;rounded=0;orthogonalLoop=1;jettySize=auto;html=1;entryX=0.5;entryY=1;entryDx=0;entryDy=0;labelBackgroundColor=default;fontFamily=Helvetica;fontSize=19;fontColor=#000000;endArrow=classic;strokeColor=#000000;strokeWidth=3;" edge="1" parent="1" source="rr1evjd3cK3BUrG2ZG_5-31" target="rr1evjd3cK3BUrG2ZG_5-62">
          <mxGeometry relative="1" as="geometry">
            <Array as="points">
              <mxPoint x="1240" y="720" />
              <mxPoint x="1365" y="720" />
            </Array>
          </mxGeometry>
        </mxCell>
        <mxCell id="rr1evjd3cK3BUrG2ZG_5-31" value="Vai ao Lugar" style="rounded=0;whiteSpace=wrap;html=1;fontSize=26;strokeWidth=2;" vertex="1" parent="1">
          <mxGeometry x="1175" y="817.5" width="130" height="65" as="geometry" />
        </mxCell>
        <mxCell id="rr1evjd3cK3BUrG2ZG_5-103" value="Não existem mais Dúvidas" style="edgeStyle=orthogonalEdgeStyle;shape=connector;rounded=0;orthogonalLoop=1;jettySize=auto;html=1;entryX=0;entryY=0.5;entryDx=0;entryDy=0;labelBackgroundColor=default;fontFamily=Helvetica;fontSize=22;fontColor=#000000;endArrow=classic;strokeColor=#000000;strokeWidth=3;" edge="1" parent="1" source="rr1evjd3cK3BUrG2ZG_5-35" target="rr1evjd3cK3BUrG2ZG_5-28">
          <mxGeometry relative="1" as="geometry">
            <Array as="points">
              <mxPoint x="1425" y="960" />
              <mxPoint x="185" y="960" />
              <mxPoint x="185" y="850" />
            </Array>
          </mxGeometry>
        </mxCell>
        <mxCell id="rr1evjd3cK3BUrG2ZG_5-35" value="Fechar a Senha" style="rounded=1;whiteSpace=wrap;html=1;fontSize=26;strokeWidth=2;" vertex="1" parent="1">
          <mxGeometry x="1360" y="815" width="130" height="70" as="geometry" />
        </mxCell>
        <mxCell id="rr1evjd3cK3BUrG2ZG_5-69" style="edgeStyle=orthogonalEdgeStyle;rounded=0;orthogonalLoop=1;jettySize=auto;html=1;entryX=0;entryY=0.5;entryDx=0;entryDy=0;fontSize=26;strokeWidth=3;" edge="1" parent="1" source="rr1evjd3cK3BUrG2ZG_5-36" target="rr1evjd3cK3BUrG2ZG_5-38">
          <mxGeometry relative="1" as="geometry" />
        </mxCell>
        <mxCell id="rr1evjd3cK3BUrG2ZG_5-36" value="Ver as Dúvidas" style="rounded=0;whiteSpace=wrap;html=1;fontSize=26;strokeWidth=2;" vertex="1" parent="1">
          <mxGeometry x="697" y="815" width="130" height="70" as="geometry" />
        </mxCell>
        <mxCell id="rr1evjd3cK3BUrG2ZG_5-67" style="edgeStyle=orthogonalEdgeStyle;rounded=0;orthogonalLoop=1;jettySize=auto;html=1;entryX=0;entryY=0.5;entryDx=0;entryDy=0;fontSize=26;strokeWidth=3;" edge="1" parent="1" source="rr1evjd3cK3BUrG2ZG_5-38" target="rr1evjd3cK3BUrG2ZG_5-31">
          <mxGeometry relative="1" as="geometry" />
        </mxCell>
        <mxCell id="rr1evjd3cK3BUrG2ZG_5-96" style="edgeStyle=orthogonalEdgeStyle;shape=connector;rounded=0;orthogonalLoop=1;jettySize=auto;html=1;entryX=0.5;entryY=1;entryDx=0;entryDy=0;labelBackgroundColor=default;fontFamily=Helvetica;fontSize=22;fontColor=#000000;endArrow=classic;strokeColor=#000000;strokeWidth=3;" edge="1" parent="1" source="rr1evjd3cK3BUrG2ZG_5-38" target="rr1evjd3cK3BUrG2ZG_5-9">
          <mxGeometry relative="1" as="geometry">
            <Array as="points">
              <mxPoint x="985" y="720" />
              <mxPoint x="1175" y="720" />
            </Array>
          </mxGeometry>
        </mxCell>
        <mxCell id="rr1evjd3cK3BUrG2ZG_5-98" value="Envia Notificação" style="edgeLabel;html=1;align=center;verticalAlign=middle;resizable=0;points=[];fontSize=22;fontFamily=Helvetica;fontColor=#000000;" vertex="1" connectable="0" parent="rr1evjd3cK3BUrG2ZG_5-96">
          <mxGeometry x="-0.119" y="1" relative="1" as="geometry">
            <mxPoint x="-14" y="-2" as="offset" />
          </mxGeometry>
        </mxCell>
        <mxCell id="rr1evjd3cK3BUrG2ZG_5-38" value="Seleciona a Senha" style="rhombus;whiteSpace=wrap;html=1;fontSize=26;strokeWidth=2;" vertex="1" parent="1">
          <mxGeometry x="875" y="780" width="220" height="140" as="geometry" />
        </mxCell>
        <mxCell id="rr1evjd3cK3BUrG2ZG_5-83" value="Quando voltar a ter Dúvidas" style="edgeStyle=orthogonalEdgeStyle;shape=connector;rounded=0;orthogonalLoop=1;jettySize=auto;html=1;entryX=0;entryY=0.5;entryDx=0;entryDy=0;labelBackgroundColor=default;fontFamily=Helvetica;fontSize=22;fontColor=default;endArrow=classic;strokeColor=default;strokeWidth=3;" edge="1" parent="1" source="rr1evjd3cK3BUrG2ZG_5-62" target="rr1evjd3cK3BUrG2ZG_5-2">
          <mxGeometry relative="1" as="geometry">
            <Array as="points">
              <mxPoint x="1370" y="220" />
              <mxPoint x="185" y="220" />
              <mxPoint x="185" y="535" />
            </Array>
          </mxGeometry>
        </mxCell>
        <mxCell id="rr1evjd3cK3BUrG2ZG_5-101" value="Dúvida resolvida" style="edgeStyle=orthogonalEdgeStyle;shape=connector;rounded=0;orthogonalLoop=1;jettySize=auto;html=1;entryX=1;entryY=0.5;entryDx=0;entryDy=0;labelBackgroundColor=default;fontFamily=Helvetica;fontSize=22;fontColor=#000000;endArrow=classic;strokeColor=#000000;strokeWidth=3;" edge="1" parent="1" source="rr1evjd3cK3BUrG2ZG_5-62" target="rr1evjd3cK3BUrG2ZG_5-35">
          <mxGeometry x="-0.1154" relative="1" as="geometry">
            <Array as="points">
              <mxPoint x="1560" y="535" />
              <mxPoint x="1560" y="850" />
            </Array>
            <mxPoint as="offset" />
          </mxGeometry>
        </mxCell>
        <mxCell id="rr1evjd3cK3BUrG2ZG_5-62" value="Ser&lt;br&gt;Atendido" style="rounded=1;whiteSpace=wrap;html=1;fontSize=26;strokeWidth=2;" vertex="1" parent="1">
          <mxGeometry x="1305" y="505" width="120" height="60" as="geometry" />
        </mxCell>
        <mxCell id="rr1evjd3cK3BUrG2ZG_5-86" value="Envia Notificação" style="edgeStyle=orthogonalEdgeStyle;shape=connector;rounded=0;orthogonalLoop=1;jettySize=auto;html=1;labelBackgroundColor=default;fontFamily=Helvetica;fontSize=22;fontColor=default;endArrow=classic;strokeColor=default;strokeWidth=3;" edge="1" parent="1" source="rr1evjd3cK3BUrG2ZG_5-14" target="rr1evjd3cK3BUrG2ZG_5-28">
          <mxGeometry relative="1" as="geometry">
            <Array as="points">
              <mxPoint x="1003" y="620" />
              <mxPoint x="270" y="620" />
            </Array>
          </mxGeometry>
        </mxCell>
        <mxCell id="rr1evjd3cK3BUrG2ZG_5-94" value="Aprendiz" style="text;html=1;align=center;verticalAlign=middle;resizable=0;points=[];autosize=1;strokeColor=none;fillColor=none;fontSize=60;fontFamily=Helvetica;fontColor=#ff0054;rotation=-90;" vertex="1" parent="1">
          <mxGeometry x="-40" y="440" width="250" height="80" as="geometry" />
        </mxCell>
        <mxCell id="rr1evjd3cK3BUrG2ZG_5-95" value="Professor" style="text;html=1;align=center;verticalAlign=middle;resizable=0;points=[];autosize=1;strokeColor=none;fillColor=none;fontSize=60;fontFamily=Helvetica;fontColor=#ff0054;rotation=-90;" vertex="1" parent="1">
          <mxGeometry x="-50" y="810" width="270" height="80" as="geometry" />
        </mxCell>
      </root>
    </mxGraphModel>
  </diagram>
</mxfile>
